<?xml version="1.0" encoding="UTF-8" standalone="no" ?>
<svg xmlns="http://www.w3.org/2000/svg" width="108.864px" height="37.608px" viewBox="0 -1118 6014.9 2078" xmlns:xlink="http://www.w3.org/1999/xlink"><defs><path id="MJX-19-NCM-I-1D45D" d="M355 442C311 442 269 419 228 373C217 419 186 442 137 442C96 442 66 409 45 344C35 311 30 292 30 286C30 277 35 272 46 272C51 272 54 273 57 275C62 284 65 291 66 298C84 374 107 412 134 412C152 412 161 398 161 371C161 356 159 339 154 321L44-118C35-151 34-155-5-155C-23-155-32-163-32-178C-32-189-26-194-15-194C0-194 52-191 67-191C86-191 146-194 165-194C180-194 187-186 187-170C187-160 178-155 159-155C141-155 114-156 114-144C114-131 155 26 159 43C179 6 209-13 249-13C314-13 371 20 421 87C467 148 490 213 490 280C490 367 438 442 355 442M352 412C391 412 411 382 411 323C411 296 405 260 394 215C371 128 342 71 307 42C286 25 267 16 248 16C219 16 199 29 188 56C179 77 174 92 174 100L225 309C230 331 248 354 276 377C304 400 329 412 352 412Z"/><path id="MJX-19-NCM-I-1D460" d="M420 354C420 411 362 442 300 442C237 442 192 423 165 385C142 352 130 322 130 295C130 242 165 208 234 193C263 188 285 181 302 173C323 164 333 147 333 123C333 105 325 85 308 62C287 33 250 18 197 18C143 18 108 33 92 62C124 61 151 87 151 119C151 144 138 157 111 157C75 157 52 124 52 88C52 22 124-11 196-11C271-11 325 11 357 56C384 93 397 126 397 156C397 199 376 231 335 252C304 263 280 270 265 273C230 282 194 285 194 328C194 381 244 413 300 413C342 413 369 400 382 375C360 371 337 352 337 327C337 306 348 295 371 295C402 295 420 323 420 354Z"/><path id="MJX-19-NCM-N-2062" d=""/><path id="MJX-19-NCM-I-1D450" d="M328 325C328 300 341 287 368 287C404 287 427 318 427 354C427 410 368 442 308 442C239 442 176 412 122 353C68 294 41 229 41 159C41 61 106-11 204-11C257-11 304 2 345 27C379 48 404 69 420 90C427 99 430 106 430 109C430 120 425 126 414 126C409 126 404 122 398 114C365 70 324 42 277 30C246 22 223 18 206 18C149 18 121 53 121 122C121 184 150 274 174 317C198 361 249 413 308 413C346 413 372 402 386 381C355 378 328 358 328 325Z"/><path id="MJX-19-NCM-I-1D44E" d="M498 144C498 153 493 158 482 158C474 158 468 151 465 137C445 58 421 18 394 18C377 18 368 32 368 60C368 73 372 97 381 132L438 357C443 376 445 387 445 392C445 412 434 422 412 422C391 422 377 410 370 387C349 424 319 442 281 442C216 442 159 409 109 343C63 281 40 217 40 150C40 63 91-11 175-11C218-11 260 12 300 58C311 20 345-11 392-11C461-11 482 70 498 144M341 374C350 353 355 339 355 330C355 326 354 321 353 314L304 122C301 111 294 99 285 87C248 41 212 18 177 18C138 18 118 48 118 107C118 131 124 167 136 215C157 300 187 357 224 388C244 405 263 413 282 413C309 413 329 400 341 374Z"/><path id="MJX-19-NCM-I-1D459" d="M173 632L49 119C46 105 44 93 44 84C44 31 83-11 136-11C185-11 220 41 241 145C241 154 236 159 225 159C217 159 211 152 208 138C188 59 165 19 138 19C121 19 113 33 113 60C113 75 115 91 119 107L258 679L258 683C255 690 249 694 242 694C210 694 136 685 124 684C109 682 102 674 102 659C102 650 111 645 130 645C147 645 173 645 173 632Z"/><path id="MJX-19-NCM-I-1D452" d="M124 129C124 153 129 186 139 227L188 227C253 227 303 235 339 250C372 264 394 284 405 309C412 326 415 342 415 355C415 410 363 442 307 442C268 442 229 432 190 412C113 372 46 281 46 171C46 69 105-11 204-11C257-11 304 2 345 27C379 48 404 69 420 90C427 99 430 106 430 109C430 120 425 126 414 126C409 126 404 122 398 114C365 70 324 42 277 30C246 22 223 18 206 18C149 18 124 72 124 129M375 355C375 289 311 256 182 256L147 256C166 322 194 366 232 387C262 404 287 413 307 413C343 413 375 391 375 355Z"/><path id="MJX-19-NCM-I-1D451" d="M429 632L370 389C349 426 320 445 281 445C216 445 159 412 109 345C63 283 40 218 40 151C40 63 91-11 175-11C218-11 260 12 300 59C311 21 345-11 392-11C461-11 483 71 498 145C498 154 493 159 483 159C474 159 468 152 465 138C445 59 421 19 394 19C377 19 368 33 368 60C368 75 370 91 374 107L516 679L516 683C513 690 507 694 499 694C476 694 434 690 374 683C363 682 357 674 357 660C357 650 366 645 384 645C403 645 429 646 429 632M341 376C351 355 356 341 356 332C355 328 354 323 353 316L304 122C301 111 294 99 285 87C248 42 212 19 177 19C138 19 118 49 118 108C118 132 124 168 136 216C157 301 187 359 224 390C244 407 263 415 282 415C309 415 329 402 341 376Z"/><path id="MJX-19-NCM-N-3D" d="M698 367L80 367C64 367 56 359 56 344C56 329 64 321 80 321L698 321C714 321 722 329 722 344C722 356 711 367 698 367M698 179L80 179C64 179 56 171 56 156C56 141 64 133 80 133L698 133C714 133 722 141 722 156C722 169 711 179 698 179Z"/><path id="MJX-19-NCM-N-2016" d="M264-250C279-250 287-242 287-226L287 726C287 742 279 750 264 750C249 750 241 742 241 726L241-226C241-242 249-250 264-250M134-250C149-250 157-242 157-226L157 726C157 742 149 750 134 750C119 750 111 742 111 726L111-226C111-242 119-250 134-250Z"/><path id="MJX-19-NCM-N-32" d="M237 666C186 666 143 648 106 612C69 576 50 534 50 483C50 449 75 424 106 424C136 424 161 450 161 480C161 513 137 536 105 536C102 536 100 536 98 535C117 584 161 627 224 627C306 627 352 556 352 470C352 403 318 331 250 255L62 43C49 28 50 29 50 0L421 0L450 180L417 180C409 129 402 100 396 91C391 86 361 84 306 84L139 84L236 179C304 243 390 312 419 365C439 400 449 435 449 470C449 588 357 666 237 666Z"/></defs><g stroke="#000000" fill="#000000" stroke-width="0" transform="scale(1,-1)"><g data-mml-node="math" data-latex="p_{scaled} = \frac{p}{\|p\|_2}" data-semantic-type="relseq" data-semantic-role="equality" data-semantic-annotation="depth:1" data-semantic-id="23" data-semantic-children="13,22" data-semantic-content="14" data-semantic-attributes="latex:p_{scaled} = \frac{p}{\|p\|_2}" data-semantic-owns="13 14 22" aria-level="0" data-speech-node="true" data-semantic-structure="(23 (13 0 (12 1 7 2 8 3 9 4 10 5 11 6)) 14 (22 15 (20 (21 16 17 18) 19)))"><g data-mml-node="msub" data-latex="p_{s c a l e d}" data-semantic-type="subscript" data-semantic-role="latinletter" data-semantic-annotation="depth:2" data-semantic-id="13" data-semantic-children="0,12" data-semantic-parent="23" data-semantic-attributes="latex:p_{s c a l e d}" data-semantic-owns="0 12" aria-level="1" data-speech-node="true"><g data-mml-node="mi" data-latex="p" data-semantic-type="identifier" data-semantic-role="latinletter" data-semantic-font="italic" data-semantic-annotation="clearspeak:simple;nemeth:number;depth:3" data-semantic-id="0" data-semantic-parent="13" data-semantic-attributes="latex:p" aria-level="2" data-speech-node="true"><use data-c="1D45D" xlink:href="#MJX-19-NCM-I-1D45D" xmlns:xlink="http://www.w3.org/1999/xlink"/></g><g data-mml-node="TeXAtom" transform="translate(536,-150) scale(0.707)" data-mjx-texclass="ORD" data-latex="{s c a l e d}" data-semantic-type="infixop" data-semantic-role="implicit" data-semantic-annotation="clearspeak:unit;depth:3" data-semantic-id="12" data-semantic-children="1,2,3,4,5,6" data-semantic-content="7,8,9,10,11" data-semantic-parent="13" data-semantic-attributes="latex:{s c a l e d};texclass:ORD" data-semantic-owns="1 7 2 8 3 9 4 10 5 11 6" aria-level="2" data-speech-node="true"><g data-mml-node="mi" data-latex="s" data-semantic-type="identifier" data-semantic-role="latinletter" data-semantic-font="italic" data-semantic-annotation="clearspeak:simple;depth:4" data-semantic-id="1" data-semantic-parent="12" data-semantic-attributes="latex:s" aria-level="3" data-speech-node="true"><use data-c="1D460" xlink:href="#MJX-19-NCM-I-1D460" xmlns:xlink="http://www.w3.org/1999/xlink"/></g><g data-mml-node="mo" data-semantic-type="operator" data-semantic-role="multiplication" data-semantic-annotation="depth:4" data-semantic-id="7" data-semantic-parent="12" data-semantic-added="true" data-semantic-operator="infixop,⁢" aria-level="3" data-speech-node="true" transform="translate(469,0)"><use data-c="2062" xlink:href="#MJX-19-NCM-N-2062" xmlns:xlink="http://www.w3.org/1999/xlink"/></g><g data-mml-node="mi" data-latex="c" data-semantic-type="identifier" data-semantic-role="latinletter" data-semantic-font="italic" data-semantic-annotation="clearspeak:simple;depth:4" data-semantic-id="2" data-semantic-parent="12" data-semantic-attributes="latex:c" aria-level="3" data-speech-node="true" transform="translate(469,0)"><use data-c="1D450" xlink:href="#MJX-19-NCM-I-1D450" xmlns:xlink="http://www.w3.org/1999/xlink"/></g><g data-mml-node="mo" data-semantic-type="operator" data-semantic-role="multiplication" data-semantic-annotation="depth:4" data-semantic-id="8" data-semantic-parent="12" data-semantic-added="true" data-semantic-operator="infixop,⁢" aria-level="3" data-speech-node="true" transform="translate(902,0)"><use data-c="2062" xlink:href="#MJX-19-NCM-N-2062" xmlns:xlink="http://www.w3.org/1999/xlink"/></g><g data-mml-node="mi" data-latex="a" data-semantic-type="identifier" data-semantic-role="latinletter" data-semantic-font="italic" data-semantic-annotation="clearspeak:simple;depth:4" data-semantic-id="3" data-semantic-parent="12" data-semantic-attributes="latex:a" aria-level="3" data-speech-node="true" transform="translate(902,0)"><use data-c="1D44E" xlink:href="#MJX-19-NCM-I-1D44E" xmlns:xlink="http://www.w3.org/1999/xlink"/></g><g data-mml-node="mo" data-semantic-type="operator" data-semantic-role="multiplication" data-semantic-annotation="depth:4" data-semantic-id="9" data-semantic-parent="12" data-semantic-added="true" data-semantic-operator="infixop,⁢" aria-level="3" data-speech-node="true" transform="translate(1431,0)"><use data-c="2062" xlink:href="#MJX-19-NCM-N-2062" xmlns:xlink="http://www.w3.org/1999/xlink"/></g><g data-mml-node="mi" data-latex="l" data-semantic-type="identifier" data-semantic-role="latinletter" data-semantic-font="italic" data-semantic-annotation="clearspeak:simple;depth:4" data-semantic-id="4" data-semantic-parent="12" data-semantic-attributes="latex:l" aria-level="3" data-speech-node="true" transform="translate(1431,0)"><use data-c="1D459" xlink:href="#MJX-19-NCM-I-1D459" xmlns:xlink="http://www.w3.org/1999/xlink"/></g><g data-mml-node="mo" data-semantic-type="operator" data-semantic-role="multiplication" data-semantic-annotation="depth:4" data-semantic-id="10" data-semantic-parent="12" data-semantic-added="true" data-semantic-operator="infixop,⁢" aria-level="3" data-speech-node="true" transform="translate(1729,0)"><use data-c="2062" xlink:href="#MJX-19-NCM-N-2062" xmlns:xlink="http://www.w3.org/1999/xlink"/></g><g data-mml-node="mi" data-latex="e" data-semantic-type="identifier" data-semantic-role="latinletter" data-semantic-font="italic" data-semantic-annotation="clearspeak:simple;depth:4" data-semantic-id="5" data-semantic-parent="12" data-semantic-attributes="latex:e" aria-level="3" data-speech-node="true" transform="translate(1729,0)"><use data-c="1D452" xlink:href="#MJX-19-NCM-I-1D452" xmlns:xlink="http://www.w3.org/1999/xlink"/></g><g data-mml-node="mo" data-semantic-type="operator" data-semantic-role="multiplication" data-semantic-annotation="depth:4" data-semantic-id="11" data-semantic-parent="12" data-semantic-added="true" data-semantic-operator="infixop,⁢" aria-level="3" data-speech-node="true" transform="translate(2195,0)"><use data-c="2062" xlink:href="#MJX-19-NCM-N-2062" xmlns:xlink="http://www.w3.org/1999/xlink"/></g><g data-mml-node="mi" data-latex="d" data-semantic-type="identifier" data-semantic-role="latinletter" data-semantic-font="italic" data-semantic-annotation="clearspeak:simple;depth:4" data-semantic-id="6" data-semantic-parent="12" data-semantic-attributes="latex:d" aria-level="3" data-speech-node="true" transform="translate(2195,0)"><use data-c="1D451" xlink:href="#MJX-19-NCM-I-1D451" xmlns:xlink="http://www.w3.org/1999/xlink"/></g></g></g><g data-mml-node="mo" data-latex="=" data-semantic-type="relation" data-semantic-role="equality" data-semantic-annotation="nemeth:number;depth:2" data-semantic-id="14" data-semantic-parent="23" data-semantic-attributes="latex:=" data-semantic-operator="relseq,=" aria-level="1" data-speech-node="true" transform="translate(2783.6,0)"><use data-c="3D" xlink:href="#MJX-19-NCM-N-3D" xmlns:xlink="http://www.w3.org/1999/xlink"/></g><g data-mml-node="mfrac" data-latex="\frac{p}{\|p\|_2}" data-semantic-type="fraction" data-semantic-role="division" data-semantic-annotation="depth:2" data-semantic-id="22" data-semantic-children="15,20" data-semantic-parent="23" data-semantic-attributes="latex:\frac{p}{\|p\|_2}" data-semantic-owns="15 20" aria-level="1" data-speech-node="true" transform="translate(3839.4,0)"><g data-mml-node="mi" data-latex="p" data-semantic-type="identifier" data-semantic-role="latinletter" data-semantic-font="italic" data-semantic-annotation="clearspeak:simple;nemeth:number;depth:3" data-semantic-id="15" data-semantic-parent="22" data-semantic-attributes="latex:p" aria-level="2" data-speech-node="true" transform="translate(836.3,676)"><use data-c="1D45D" xlink:href="#MJX-19-NCM-I-1D45D" xmlns:xlink="http://www.w3.org/1999/xlink"/></g><g data-mml-node="mrow" data-latex="\|p\|_2 " transform="translate(220,-710)"><g data-mml-node="msub" data-latex="\|_2" data-semantic-type="subscript" data-semantic-role="metric" data-semantic-annotation="depth:3" data-semantic-fencepointer="18" data-semantic-id="20" data-semantic-children="21,19" data-semantic-parent="22" data-semantic-attributes="latex:\|p\|_2 " data-semantic-owns="21 19" aria-level="2" data-speech-node="true"><g data-mml-node="mrow" data-semantic-added="true" data-semantic-type="fenced" data-semantic-role="metric" data-semantic-annotation="depth:4" data-semantic-id="21" data-semantic-children="17" data-semantic-content="16,18" data-semantic-parent="20" data-semantic-owns="16 17 18" aria-level="3" data-speech-node="true"><g data-mml-node="mo" data-mjx-texclass="ORD" data-latex="\|" data-semantic-type="fence" data-semantic-role="metric" data-semantic-annotation="depth:5" data-semantic-id="16" data-semantic-parent="21" data-semantic-attributes="latex:\|;texclass:ORD" aria-level="4" data-speech-node="true"><use data-c="2016" xlink:href="#MJX-19-NCM-N-2016" xmlns:xlink="http://www.w3.org/1999/xlink"/></g><g data-mml-node="mi" data-latex="p" data-semantic-type="identifier" data-semantic-role="latinletter" data-semantic-font="italic" data-semantic-annotation="clearspeak:simple;depth:5" data-semantic-id="17" data-semantic-parent="21" data-semantic-attributes="latex:p" aria-level="4" data-speech-node="true" transform="translate(398,0)"><use data-c="1D45D" xlink:href="#MJX-19-NCM-I-1D45D" xmlns:xlink="http://www.w3.org/1999/xlink"/></g><g data-mml-node="mo" data-mjx-texclass="ORD" data-latex="\|" data-semantic-type="fence" data-semantic-role="metric" data-semantic-annotation="depth:5" data-semantic-id="18" data-semantic-parent="21" data-semantic-attributes="latex:\|;texclass:ORD" aria-level="4" data-speech-node="true" transform="translate(901,0)"><use data-c="2016" xlink:href="#MJX-19-NCM-N-2016" xmlns:xlink="http://www.w3.org/1999/xlink"/></g></g><g data-mml-node="mn" transform="translate(1332,-150) scale(0.707)" data-latex="2" data-semantic-type="number" data-semantic-role="integer" data-semantic-font="normal" data-semantic-annotation="clearspeak:simple;depth:4" data-semantic-id="19" data-semantic-parent="20" data-semantic-attributes="latex:2" aria-level="3" data-speech-node="true"><use data-c="32" xlink:href="#MJX-19-NCM-N-32" xmlns:xlink="http://www.w3.org/1999/xlink"/></g></g></g><rect width="1935.6" height="60" x="120" y="220"/></g></g></g></svg>